<svg width="180" height="179" xmlns="http://www.w3.org/2000/svg" xmlns:xlink="http://www.w3.org/1999/xlink" xml:space="preserve" overflow="hidden"><g transform="translate(-736 -270)"><g><g><g><g><path d="M159.71 78.8707 140.511 67.8996 139.096 41.0142 112.21 39.5994 101.237 20.3958 74.8193 25.6895 39.0339 106.531 27.4917 118.073C18.0138 127.55 18.0126 142.915 27.4889 152.393 36.9652 161.871 52.3307 161.872 61.8086 152.396L72.7612 141.443 154.426 105.287ZM128.512 51.6033 129.541 71.1425 100.932 93.2738 86.8399 79.1822 108.971 50.5724ZM64.3989 96.0736 55.0929 108.098 51.9167 104.924 58.4637 90.1348ZM61.677 82.8646 67.3062 70.1413 76.9757 79.8107 68.975 90.1607ZM60.3791 113.39 69.6851 101.36 78.7557 110.43 66.7259 119.737ZM72.0121 125.023 84.042 115.717 89.9753 121.65 75.1865 128.195ZM89.9549 111.142 100.31 103.136 109.98 112.806 97.251 118.437ZM84.6687 105.856 74.2594 95.4469 82.2675 85.1063 95.0186 97.8574ZM82.6569 35.4665 95.5656 32.8855 103.092 46.0501 81.5537 73.8978 70.5269 62.8711ZM35.3571 144.53C30.2368 139.393 30.2368 131.082 35.3571 125.944L40.4876 120.816 59.0719 139.398 53.9414 144.529C48.8046 149.648 40.4948 149.649 35.3571 144.53ZM144.649 97.4587 117.245 109.581 106.22 98.5564 134.056 77.0258 147.221 84.5519Z" fill="#000000" fill-rule="nonzero" fill-opacity="0.0888276" transform="matrix(1.00562 0 0 1 736 271)"/></g></g></g></g></g></svg>