<svg width="171" height="172" xmlns="http://www.w3.org/2000/svg" xmlns:xlink="http://www.w3.org/1999/xlink" xml:space="preserve" overflow="hidden"><defs><clipPath id="clip0"><path d="M464.815 512.853 580.592 566.347 527.097 682.124 411.32 628.63Z" fill-rule="nonzero" clip-rule="nonzero"/></clipPath><clipPath id="clip1"><path d="M464.815 512.853 580.592 566.347 527.097 682.124 411.32 628.63Z" fill-rule="evenodd" clip-rule="evenodd"/></clipPath><clipPath id="clip2"><path d="M464.815 512.853 580.592 566.347 527.097 682.124 411.32 628.63Z" fill-rule="evenodd" clip-rule="evenodd"/></clipPath></defs><g transform="translate(-410 -512)"><g><g clip-path="url(#clip0)"><g clip-path="url(#clip1)"><g clip-path="url(#clip2)"><path d="M482.025 627.639C469.965 622.066 464.775 607.96 470.347 595.9 475.92 583.84 490.026 578.65 502.086 584.222 514.146 589.795 519.336 603.901 513.764 615.961 508.191 628.021 494.085 633.211 482.025 627.639ZM475.737 577.902 461.264 571.215 465.722 561.567 480.194 568.254 475.737 577.902ZM552.189 589.811 528.069 578.666 526.405 563.263 502.285 552.118 489.476 560.835 465.356 549.69C462.703 548.464 459.529 549.632 458.303 552.285L431.556 610.173C430.33 612.827 431.498 616 434.151 617.226L520.984 657.347C523.637 658.573 526.811 657.405 528.037 654.752L554.784 596.864C556.01 594.211 554.842 591.037 552.189 589.811Z" fill="#000000" fill-rule="nonzero" fill-opacity="0.0888276"/><path d="M497.628 593.87C490.874 590.75 483.116 593.605 479.995 600.358 476.875 607.112 479.729 614.87 486.483 617.991 493.237 621.111 500.995 618.257 504.116 611.503 507.236 604.749 504.381 596.991 497.628 593.87ZM484.254 622.815C474.847 618.468 470.825 607.536 475.171 598.129 479.518 588.722 490.45 584.7 499.857 589.046 509.264 593.393 513.286 604.325 508.94 613.732 504.593 623.139 493.661 627.161 484.254 622.815Z" fill="#000000" fill-rule="nonzero" fill-opacity="0.0888276"/></g></g></g></g></g></svg>