<svg width="142" height="144" xmlns="http://www.w3.org/2000/svg" xmlns:xlink="http://www.w3.org/1999/xlink" xml:space="preserve" overflow="hidden"><defs><clipPath id="clip0"><path d="M736 522.099 868.057 512.853 877.304 644.91 745.246 654.156Z" fill-rule="nonzero" clip-rule="nonzero"/></clipPath><clipPath id="clip1"><path d="M736 522.099 868.057 512.853 877.304 644.91 745.246 654.156Z" fill-rule="evenodd" clip-rule="evenodd"/></clipPath><clipPath id="clip2"><path d="M736 522.099 868.057 512.853 877.304 644.91 745.246 654.156Z" fill-rule="evenodd" clip-rule="evenodd"/></clipPath></defs><g transform="translate(-736 -512)"><g><g clip-path="url(#clip0)"><g clip-path="url(#clip1)"><g clip-path="url(#clip2)"><path d="M784.592 616.318 751.298 587.38 779.595 554.822 785.836 560.246 762.963 586.564 790.017 610.077 784.592 616.318Z" fill="#000000" fill-rule="nonzero" fill-opacity="0.0888276"/><path d="M832.381 612.972 826.14 607.547 849.653 580.494 823.335 557.62 828.759 551.379 861.318 579.677 832.381 612.972Z" fill="#000000" fill-rule="nonzero" fill-opacity="0.0888276"/><path d="M813.53 583.023C813.796 586.822 810.932 590.117 807.133 590.383 803.335 590.648 800.04 587.785 799.774 583.986 799.508 580.188 802.372 576.893 806.17 576.627 809.969 576.361 813.264 579.224 813.53 583.023Z" fill="#000000" fill-rule="nonzero" fill-opacity="0.0888276"/><path d="M791.52 584.564C791.786 588.363 788.922 591.658 785.124 591.924 781.325 592.19 778.03 589.326 777.764 585.527 777.498 581.729 780.362 578.434 784.161 578.168 787.959 577.902 791.254 580.765 791.52 584.564Z" fill="#000000" fill-rule="nonzero" fill-opacity="0.0888276"/><path d="M835.539 581.482C835.805 585.28 832.942 588.575 829.143 588.841 825.344 589.107 822.049 586.244 821.783 582.445 821.517 578.646 824.381 575.351 828.18 575.085 831.978 574.82 835.273 577.683 835.539 581.482Z" fill="#000000" fill-rule="nonzero" fill-opacity="0.0888276"/></g></g></g></g></g></svg>