<svg width="219" height="220" xmlns="http://www.w3.org/2000/svg" xmlns:xlink="http://www.w3.org/1999/xlink" xml:space="preserve" overflow="hidden"><defs><clipPath id="clip0"><path d="M366.554 268.886 532.195 217.581 583.501 383.222 417.859 434.528Z" fill-rule="nonzero" clip-rule="nonzero"/></clipPath><clipPath id="clip1"><path d="M366.554 268.886 532.195 217.581 583.501 383.222 417.859 434.528Z" fill-rule="evenodd" clip-rule="evenodd"/></clipPath><clipPath id="clip2"><path d="M366.554 268.886 532.195 217.581 583.501 383.222 417.859 434.528Z" fill-rule="evenodd" clip-rule="evenodd"/></clipPath></defs><g transform="translate(-365 -216)"><g><g clip-path="url(#clip0)"><g clip-path="url(#clip1)"><g clip-path="url(#clip2)"><path d="M535.203 263.923 512.773 270.871 512.238 269.145C511.648 267.239 509.625 266.173 507.719 266.763 505.813 267.353 504.746 269.377 505.337 271.283L505.871 273.008 483.44 279.956C481.534 280.546 480.468 282.57 481.058 284.476 481.649 286.382 483.672 287.448 485.578 286.858L508.009 279.91 509.612 285.086 507.887 285.621C506.934 285.916 506.4 286.928 506.696 287.881L507.868 291.665 499.955 292.792C477.599 295.959 455.893 302.682 435.66 312.706L428.498 316.248 427.326 312.464C427.03 311.512 426.019 310.978 425.066 311.273L423.34 311.808 421.737 306.632 444.168 299.684C446.074 299.094 447.14 297.07 446.55 295.164 445.959 293.258 443.936 292.192 442.03 292.782L419.599 299.73 419.065 298.004C418.475 296.099 416.451 295.032 414.545 295.622 412.639 296.213 411.573 298.236 412.163 300.142L412.698 301.868 390.267 308.815C388.361 309.405 387.295 311.429 387.885 313.335 388.475 315.241 390.499 316.307 392.405 315.717L414.835 308.769 416.439 313.946 414.713 314.48C413.76 314.775 413.227 315.787 413.522 316.74L415.382 322.744 411.795 324.523C408.822 325.962 407.579 329.538 409.017 332.512 410.186 334.927 412.821 336.268 415.462 335.792L426.347 333.933C431.636 333.033 437 332.658 442.363 332.813L444.721 332.882C446.92 332.947 449.11 333.101 451.294 333.345L448.864 363.685 454.414 381.604 461.315 379.466 456.177 362.876 458.459 334.461 459.262 334.611C461.88 335.113 464.58 334.963 467.127 334.174L471.454 332.834 474.126 341.461 468.95 343.064C467.044 343.654 465.978 345.678 466.568 347.584L470.843 361.387C471.434 363.293 473.457 364.36 475.363 363.769L496.068 357.356C497.974 356.766 499.041 354.742 498.45 352.836L494.175 339.033C493.585 337.127 491.561 336.061 489.655 336.651L484.479 338.254 481.807 329.627 486.132 328.287C488.681 327.499 490.997 326.095 492.875 324.2L493.452 323.621 511.391 345.774 516.529 362.364 523.431 360.227 517.881 342.308 498.722 318.658C500.387 317.226 502.108 315.861 503.883 314.564L505.79 313.173C510.128 310.015 514.768 307.294 519.642 305.05L529.67 300.431C532.683 299.077 534.028 295.537 532.673 292.524 531.573 290.076 528.978 288.661 526.325 289.062L522.359 289.61 520.499 283.605C520.204 282.652 519.192 282.119 518.239 282.414L516.514 282.949 514.911 277.772 537.341 270.825C539.247 270.234 540.313 268.211 539.723 266.305 539.133 264.399 537.109 263.333 535.203 263.923ZM483.845 354.524C481.463 355.262 478.933 353.929 478.196 351.546 477.458 349.164 478.791 346.634 481.173 345.897 483.555 345.159 486.085 346.492 486.823 348.874 487.561 351.256 486.228 353.786 483.845 354.524Z" fill="#000000" fill-rule="nonzero" fill-opacity="0.0888276"/></g></g></g></g></g></svg>